<?xml version="1.0" standalone="no"?>
<!DOCTYPE svg PUBLIC "-//W3C//DTD SVG 20010904//EN"
 "http://www.w3.org/TR/2001/REC-SVG-20010904/DTD/svg10.dtd">
<svg version="1.0" xmlns="http://www.w3.org/2000/svg"
 width="50px" height="50px" viewBox="-100 -100 100 100">

<g transform="translate(-150.000000,54.000000) scale(0.1,-0.1)"
fill="#DEDBDB" stroke="none">
<path d="M1058 1357 c-153 -89 -278 -166 -278 -172 0 -6 39 -24 88 -40 l87
-30 31 -90 c17 -50 37 -91 45 -92 8 -2 33 24 57 57 l43 59 56 -24 c62 -28 82
-31 88 -12 8 20 85 465 85 487 0 11 -6 20 -12 19 -7 0 -138 -73 -290 -162z
m53 -71 l-143 -143 -64 20 c-35 12 -64 24 -64 27 0 5 400 239 410 240 3 0 -60
-65 -139 -144z m174 -55 c-19 -107 -36 -195 -37 -196 -2 -1 -40 13 -85 32
l-81 35 116 163 c65 90 118 162 119 161 1 -1 -13 -89 -32 -195z m-81 97 c-18
-31 -147 -209 -154 -213 -5 -3 -12 -26 -16 -50 -8 -54 -17 -51 -34 11 l-13 46
109 109 c60 60 110 109 112 109 2 0 0 -6 -4 -12z m-110 -266 c3 -5 -6 -21 -19
-38 -24 -29 -24 -29 -19 -4 9 42 13 50 23 50 5 0 12 -4 15 -8z"/>
<path d="M640 919 c0 -14 30 -38 48 -39 18 0 15 21 -5 36 -22 17 -43 18 -43 3z"/>
<path d="M908 909 c-10 -6 -18 -14 -18 -19 0 -14 37 -12 46 1 10 17 -9 29 -28
18z"/>
<path d="M742 868 c5 -15 67 -18 71 -3 1 6 -15 11 -37 13 -28 3 -37 0 -34 -10z"/>
<path d="M705 789 c-9 -17 -19 -57 -22 -88 -3 -34 -12 -61 -21 -68 -22 -18
-77 -16 -96 3 -23 23 -21 89 4 114 29 29 60 26 60 -5 0 -28 24 -34 34 -9 9 23
-20 64 -44 64 -78 0 -133 -89 -99 -164 16 -33 53 -47 123 -44 57 3 60 4 75 38
l15 35 5 -35 6 -35 78 -1 c53 -1 82 3 92 12 11 11 15 11 25 -1 9 -11 33 -15
86 -15 71 0 108 16 64 27 -16 4 -20 11 -16 27 3 11 8 45 12 74 5 42 10 52 25
52 11 0 19 7 19 15 0 11 -11 15 -39 15 -44 0 -71 -8 -71 -21 0 -5 9 -9 21 -9
15 0 19 -5 15 -17 -3 -10 -8 -44 -12 -77 -4 -37 -10 -53 -15 -45 -6 11 -11 11
-21 1 -19 -19 -45 -14 -52 11 -9 34 -8 35 21 39 29 3 45 28 18 28 -15 0 -15 2
-1 22 19 27 20 50 4 66 -18 18 -45 -3 -59 -45 -7 -21 -19 -44 -28 -51 -12 -10
-13 -15 -3 -18 17 -8 15 -39 -3 -54 -13 -11 -15 -7 -15 28 0 31 -4 41 -20 45
-25 7 -66 -25 -74 -58 -11 -42 -29 -30 -22 14 7 49 -3 57 -38 30 -26 -20 -26
-20 5 29 35 57 36 95 2 100 -16 2 -26 -5 -38 -29z m20 -61 c-17 -23 -17 -23
-10 12 10 46 19 60 23 33 2 -13 -4 -33 -13 -45z m251 5 c-10 -26 -18 -8 -9 23
5 21 8 24 11 11 2 -10 1 -25 -2 -34z m-116 -70 c0 -23 -17 -49 -26 -41 -9 10
4 58 16 58 6 0 10 -8 10 -17z"/>
<path d="M1176 779 c-27 -21 -33 -48 -16 -65 7 -7 4 -16 -10 -29 -28 -25 -26
-61 5 -81 20 -13 38 -15 83 -10 66 7 63 7 124 0 38 -5 50 -2 67 15 38 38 26
66 -42 100 -44 22 -44 55 0 59 26 3 32 -1 35 -20 4 -29 32 -30 36 -1 6 40 -63
67 -108 43 -54 -29 -45 -77 20 -110 56 -29 56 -60 0 -60 -33 0 -40 3 -40 19 0
28 -20 37 -27 13 -5 -22 -30 -32 -84 -32 -69 0 -75 50 -9 64 37 7 39 22 5 30
-28 7 -34 40 -9 50 35 13 54 7 54 -19 0 -30 25 -34 33 -4 7 28 -25 59 -62 59
-15 0 -40 -9 -55 -21z"/>
</g>
</svg>
